<?xml version="1.0" encoding="utf-8"?>
<!-- Generator: Adobe Illustrator 24.0.3, SVG Export Plug-In . SVG Version: 6.00 Build 0)  -->
<svg version="1.1" id="Layer_1" xmlns="http://www.w3.org/2000/svg" xmlns:xlink="http://www.w3.org/1999/xlink" x="0px" y="0px"
	 viewBox="0 0 204 36" style="enable-background:new 0 0 204 36;" xml:space="preserve">
<style type="text/css">
	.st0{enable-background:new    ;}
	.st1{fill:#555555;}
	.st2{fill:#2D3374;}
	.st3{fill:#3A7EDF;}
	.st4{fill:#9BCBF8;}
</style>
<g class="st0">
	<path class="st1" d="M47,26.8c-0.9-0.3-1.9-0.8-3-1.5c0.2-1.1,0.3-2.5,0.3-4.3c0.5-0.1,1-0.2,1.6-0.2c0.1,1.6,0.5,2.8,1.2,3.7
		c0.7,0.8,1.9,1.3,3.4,1.3c1.3,0,2.3-0.3,2.9-0.9c0.6-0.6,0.9-1.3,0.9-2.3c0-0.8-0.2-1.4-0.6-2c-0.4-0.5-0.9-1-1.5-1.3
		c-0.6-0.3-1.4-0.8-2.4-1.2c-1.2-0.6-2.2-1.1-2.9-1.6c-0.7-0.5-1.3-1.1-1.8-1.8c-0.5-0.8-0.8-1.7-0.8-2.9c0-1.7,0.5-3,1.6-4
		s2.5-1.4,4.4-1.4c1,0,1.9,0.1,2.8,0.4s1.6,0.6,2.2,0.9c0,1.8,0.1,3.1,0.2,4c-0.4,0.2-1,0.3-1.7,0.3c-0.3-1.6-0.7-2.8-1.3-3.3
		c-0.6-0.6-1.3-0.9-2.3-0.9c-1.1,0-1.9,0.3-2.5,0.8C47.3,9.1,47,9.8,47,10.7c0,0.8,0.2,1.5,0.6,2c0.4,0.6,0.9,1,1.5,1.4
		c0.6,0.4,1.4,0.8,2.4,1.3c1.2,0.6,2.1,1.1,2.8,1.5s1.3,1.1,1.8,1.8c0.5,0.7,0.8,1.6,0.8,2.7c0,1-0.2,2-0.7,2.9
		c-0.5,0.9-1.2,1.6-2.3,2.1c-1,0.5-2.3,0.8-3.8,0.8C49,27.3,47.9,27.1,47,26.8z"/>
	<path class="st1" d="M70.6,24c0.1,0.3,0.3,0.5,0.5,0.7c0.3,0.1,0.7,0.2,1.2,0.3c0,0.6-0.1,1-0.2,1.4c-0.5,0-1.1,0.1-1.7,0.3
		c-0.6,0.2-1.1,0.4-1.6,0.6c-0.2-0.1-0.4-0.3-0.5-0.6c-0.1-0.3-0.2-0.7-0.2-1.2c0-0.3,0-0.6,0-0.8c-0.2,0.6-0.6,1.1-1.1,1.5
		c-0.8,0.7-1.8,1-3.2,1c-1.2,0-2.2-0.3-2.9-0.8c-0.7-0.6-1-1.3-1-2.3c0-1.2,0.4-2.1,1.3-2.8c0.9-0.7,1.8-1.2,2.9-1.5
		c1.1-0.3,2.2-0.5,3.5-0.7c0-1.2,0-2.1-0.1-2.5c-0.1-0.5-0.3-0.9-0.5-1.2c-0.5-0.6-1.1-0.9-1.9-0.9c-0.9,0-1.6,0.4-2,1.1
		c-0.4,0.7-0.6,1.5-0.7,2.4c-0.3,0-0.6,0-0.9-0.1c-0.3,0-0.6-0.1-0.7-0.1c0-0.2,0-0.5,0-1c0-0.9-0.1-1.6-0.2-2.2
		c0.8-0.4,1.7-0.8,2.6-1c0.9-0.2,1.8-0.4,2.5-0.4c1.4,0,2.4,0.4,3.2,1.1c0.5,0.5,0.8,1.1,1,1.9c0.2,0.8,0.3,1.9,0.3,3.3v3.3
		C70.4,23.2,70.5,23.7,70.6,24z M67.7,20.2c-1,0.1-1.8,0.3-2.4,0.4s-1.2,0.5-1.7,0.9C63.2,22,63,22.6,63,23.4c0,0.7,0.2,1.2,0.5,1.6
		c0.3,0.4,0.8,0.5,1.3,0.5c0.5,0,0.9-0.1,1.4-0.4c0.5-0.3,0.8-0.8,1.1-1.4s0.5-1.4,0.5-2.4V20.2z"/>
	<path class="st1" d="M99,27.1C98.1,27,97,27,95.7,27c-1.4,0-2.6,0-3.6,0.1c0-0.6,0-1,0.1-1.3c0.8,0,1.3-0.2,1.6-0.6
		c0.3-0.3,0.4-1,0.4-2v-4.6c0-1.3-0.2-2.3-0.7-2.8c-0.5-0.5-1.2-0.8-2-0.8c-0.6,0-1.1,0.2-1.6,0.5c-0.5,0.3-0.9,0.9-1.2,1.6
		c-0.3,0.8-0.5,1.7-0.5,2.9v3.2c0,1,0.2,1.7,0.5,2c0.3,0.4,0.9,0.5,1.6,0.6c0.1,0.3,0.1,0.7,0.1,1.3c-1-0.1-2.2-0.1-3.6-0.1
		c-1.3,0-2.5,0-3.6,0.1c0-0.6,0-1,0.1-1.3c0.8,0,1.3-0.2,1.6-0.6c0.3-0.3,0.4-1,0.4-2v-4.7c0-1.3-0.2-2.3-0.7-2.8
		c-0.5-0.5-1.2-0.8-2-0.8c-0.6,0-1.1,0.2-1.6,0.5c-0.5,0.3-0.9,0.9-1.2,1.7c-0.3,0.8-0.5,1.7-0.5,2.8v3.4c0,1,0.1,1.6,0.5,2
		c0.3,0.4,0.8,0.6,1.6,0.6c0.1,0.3,0.1,0.7,0.1,1.3c-1-0.1-2.2-0.1-3.6-0.1c-1.4,0-2.6,0-3.6,0.1c0-0.6,0-1,0.1-1.3
		c0.8,0,1.3-0.2,1.6-0.6c0.3-0.3,0.4-1,0.4-2v-5.9c0-0.5-0.1-0.9-0.2-1.2c-0.1-0.3-0.3-0.5-0.6-0.7c-0.3-0.2-0.8-0.2-1.4-0.3
		c0-0.5,0.1-0.8,0.3-1.1c0.5,0,1.2-0.2,2-0.4c0.8-0.2,1.4-0.4,1.8-0.6c0.4,0.1,0.7,0.5,0.7,1.2c0,0.5,0,1.1-0.1,1.9
		c0.2-0.6,0.4-0.9,0.5-1c0.4-0.6,0.9-1.1,1.7-1.5c0.8-0.4,1.6-0.7,2.6-0.7c0.9,0,1.7,0.2,2.4,0.6c0.7,0.4,1.2,1,1.5,1.9
		c0.1,0.3,0.1,0.5,0.1,0.8c0.1-0.4,0.3-0.7,0.5-1c0.4-0.6,1-1.1,1.7-1.5c0.8-0.4,1.6-0.7,2.6-0.7c1.2,0,2.3,0.4,3,1.2
		c0.8,0.8,1.2,2,1.2,3.7v5.2c0,1,0.1,1.6,0.4,2c0.3,0.4,0.7,0.6,1.4,0.6C98.9,26.1,99,26.5,99,27.1z"/>
	<path class="st1" d="M106.1,26.8v3c0,0.9,0.1,1.5,0.3,2c0.2,0.4,0.5,0.8,0.8,0.9c0.4,0.2,0.9,0.3,1.6,0.3c0.1,0.3,0.1,0.7,0.1,1.3
		c-0.9-0.1-2.2-0.1-3.8-0.1c-1.9,0-3.2,0-4,0.1c0-0.6,0-1,0.1-1.3c0.8,0,1.3-0.2,1.6-0.6c0.3-0.3,0.4-1,0.4-2V17.2
		c0-0.5-0.1-0.9-0.2-1.2s-0.3-0.5-0.6-0.7c-0.3-0.2-0.8-0.2-1.4-0.3c0-0.5,0.1-0.8,0.3-1.1c0.6,0,1.3-0.2,2.1-0.4
		c0.8-0.2,1.4-0.4,1.9-0.7c0.4,0.1,0.7,0.6,0.7,1.3c0,0.3,0,0.6-0.1,0.9c-0.1,0.3-0.2,0.7-0.3,1.2c0.2-0.4,0.4-0.8,0.7-1.3
		c0.3-0.5,0.9-1,1.6-1.5s1.6-0.7,2.5-0.7c1.8,0,3.2,0.5,4.2,1.6c1,1.1,1.5,2.7,1.5,4.8c0,1.5-0.3,2.8-0.9,4
		c-0.6,1.2-1.5,2.1-2.6,2.8c-1.1,0.7-2.4,1-3.9,1C107.7,27.3,106.9,27.1,106.1,26.8z M107.1,16.3c-0.7,0.9-1.1,2.4-1.1,4.3v4.2
		c0.4,0.3,0.8,0.6,1.2,0.8s0.9,0.3,1.5,0.3c0.7,0,1.3-0.2,2-0.5c0.7-0.3,1.2-0.9,1.7-1.8c0.5-0.9,0.7-2,0.7-3.5
		c0-1.6-0.3-2.8-0.9-3.8c-0.6-0.9-1.4-1.4-2.4-1.4C108.7,14.9,107.9,15.4,107.1,16.3z"/>
	<path class="st1" d="M118.2,25.8c0.8,0,1.3-0.2,1.6-0.6c0.3-0.4,0.4-1.1,0.4-2.1V9.8c0-0.5,0-0.9-0.1-1.2c-0.1-0.3-0.3-0.5-0.6-0.7
		c-0.3-0.1-0.8-0.2-1.5-0.2c0-0.5,0.1-0.8,0.3-1.1c0.5,0,1.2-0.1,2.1-0.3c0.9-0.2,1.5-0.4,1.9-0.7c0.4,0.1,0.7,0.5,0.7,1.2v16.5
		c0,1,0.1,1.7,0.4,2.1c0.3,0.4,0.7,0.6,1.4,0.6c0.1,0.3,0.2,0.8,0.2,1.3c-1-0.1-2.2-0.1-3.4-0.1c-1.3,0-2.4,0-3.4,0.1
		C118,26.5,118.1,26.1,118.2,25.8z"/>
	<path class="st1" d="M138.6,24.3c0.1,0.2,0.2,0.4,0.3,0.5c-0.7,0.9-1.5,1.5-2.3,1.9c-0.9,0.4-1.9,0.6-3,0.6c-1.4,0-2.5-0.3-3.5-0.9
		c-1-0.6-1.7-1.5-2.1-2.6s-0.7-2.3-0.7-3.6c0-1.3,0.3-2.5,0.8-3.6c0.5-1.1,1.2-1.9,2.2-2.6c0.9-0.6,2-1,3.3-1c1.8,0,3.2,0.6,4.1,1.7
		c0.9,1.1,1.4,2.6,1.5,4.5c-0.1,0.4-0.2,0.7-0.5,1c-3.5,0-6.3,0.1-8.4,0.2c0.1,1.5,0.5,2.8,1.2,3.8c0.7,1,1.7,1.5,3.2,1.5
		c0.7,0,1.3-0.1,2-0.5c0.6-0.3,1.2-0.7,1.7-1.3C138.2,24,138.4,24.1,138.6,24.3z M131,15.5c-0.6,0.7-0.9,1.8-1,3.4h5.8
		c0-1.3-0.2-2.4-0.7-3.2c-0.5-0.8-1.2-1.2-2-1.2C132.2,14.4,131.6,14.8,131,15.5z"/>
	<path class="st1" d="M174.6,6.6c0,0.5-0.1,0.9-0.2,1.3c-0.4,0.1-0.7,0.2-0.9,0.5c-0.2,0.3-0.5,0.7-0.7,1.2
		c-0.2,0.6-0.5,1.4-0.9,2.6l-4.7,14.8c-0.3,0.1-0.7,0.2-1.2,0.2c-2-5.7-4-11-5.8-15.9l-5.3,15.8c-0.3,0.1-0.8,0.2-1.3,0.2
		c-1.8-5.8-3.5-11.1-5-15.9c-0.4-1.1-0.7-1.9-0.9-2.3c-0.2-0.4-0.4-0.7-0.6-0.9c-0.2-0.1-0.5-0.2-0.9-0.3C146,7.6,146,7.2,146,6.6
		c1,0.1,2.1,0.1,3.4,0.1c1.3,0,2.5,0,3.6-0.1c0,0.5,0,0.9-0.1,1.3c-0.7,0-1.2,0.1-1.5,0.3c-0.3,0.1-0.4,0.4-0.4,0.8
		c0,0.4,0.2,1.1,0.5,2.1c1.5,4.6,2.6,8.3,3.5,11.2l5.3-15.6c0.3-0.1,0.7-0.1,1.3-0.1c1.8,4.7,3.7,10,5.7,15.8l3.2-10.1
		c0.3-1.1,0.5-1.9,0.5-2.4c0-0.6-0.2-1-0.5-1.3c-0.3-0.3-0.8-0.5-1.5-0.6c-0.1-0.4-0.2-0.8-0.2-1.3c0.8,0.1,1.8,0.1,2.9,0.1
		S173.8,6.7,174.6,6.6z"/>
	<path class="st1" d="M185.6,24.3c0.1,0.2,0.2,0.4,0.3,0.5c-0.7,0.9-1.5,1.5-2.3,1.9c-0.9,0.4-1.9,0.6-3,0.6c-1.4,0-2.5-0.3-3.5-0.9
		c-1-0.6-1.7-1.5-2.1-2.6s-0.7-2.3-0.7-3.6c0-1.3,0.3-2.5,0.8-3.6c0.5-1.1,1.2-1.9,2.2-2.6c0.9-0.6,2-1,3.3-1c1.8,0,3.2,0.6,4.1,1.7
		c0.9,1.1,1.4,2.6,1.5,4.5c-0.1,0.4-0.2,0.7-0.5,1c-3.5,0-6.3,0.1-8.4,0.2c0.1,1.5,0.5,2.8,1.2,3.8c0.7,1,1.7,1.5,3.2,1.5
		c0.7,0,1.3-0.1,2-0.5c0.6-0.3,1.2-0.7,1.7-1.3C185.3,24,185.4,24.1,185.6,24.3z M178,15.5c-0.6,0.7-0.9,1.8-1,3.4h5.8
		c0-1.3-0.2-2.4-0.7-3.2c-0.5-0.8-1.2-1.2-2-1.2C179.3,14.4,178.6,14.8,178,15.5z"/>
	<path class="st1" d="M200.9,14.6c1,1.1,1.5,2.8,1.5,5c0,1.4-0.3,2.7-0.9,3.8s-1.5,2.1-2.6,2.8c-1.1,0.7-2.4,1-3.9,1
		c-1.3,0-2.4-0.2-3.4-0.6c-1-0.4-1.8-0.9-2.5-1.5c0.2-0.3,0.4-0.7,0.5-1.3c0.1-0.6,0.2-1.4,0.2-2.5V9.8c0-0.5-0.1-0.9-0.2-1.2
		c-0.1-0.3-0.3-0.5-0.6-0.7c-0.3-0.1-0.8-0.2-1.5-0.2c0-0.5,0.1-0.8,0.3-1.1c0.5,0,1.2-0.1,2.1-0.3c0.9-0.2,1.5-0.4,1.9-0.7
		c0.4,0.1,0.7,0.5,0.7,1.2v7.8c0,0.4,0,0.8-0.1,1.3l0.4-0.6c0.3-0.5,0.9-1,1.6-1.5s1.6-0.7,2.5-0.7C198.5,13,199.9,13.5,200.9,14.6z
		 M197,25.4c0.7-0.3,1.2-0.9,1.7-1.8c0.5-0.9,0.7-2,0.7-3.5c0-1.2-0.2-2.2-0.5-3c-0.4-0.8-0.8-1.3-1.3-1.7c-0.5-0.3-1-0.5-1.5-0.5
		c-1,0-1.9,0.5-2.6,1.4c-0.7,0.9-1.1,2.4-1.1,4.3v4.2c0.4,0.3,0.8,0.6,1.2,0.8s0.9,0.3,1.5,0.3C195.7,25.9,196.3,25.7,197,25.4z"/>
</g>
<g id="Group_1" transform="translate(-45 -127.274)">
	<rect id="Rectangle_8" x="45" y="130.3" class="st2" width="10" height="28"/>
	<rect id="Rectangle_9" x="55" y="130.3" class="st3" width="9" height="28"/>
	<rect id="Rectangle_10" x="64" y="130.3" class="st4" width="9" height="28"/>
</g>
</svg>
